<svg width="106" height="25" viewBox="0 0 106 25" fill="none" xmlns="http://www.w3.org/2000/svg">
<path fill-rule="evenodd" clip-rule="evenodd" d="M36.7321 25.0012H70.3162C91 25.0012 83.4356 2.00119 106 2.00119C106 2.00119 102.344 1.6799 100 1.50119C81.889 0.12064 53.5 0.501186 53.5 0.501186C53.5 0.501186 25.1255 0.325381 7 1.50119C4.26511 1.6786 0 2.00119 0 2.00119C23.6139 2.00119 15 25.0012 36.7321 25.0012ZM39 15.5C44 15.5 62.9243 15.5 68 15.5C73.0757 15.5 72.8188 8.27992 68 8.27992H39C34 8.27992 34 15.5 39 15.5Z" fill="#334155"/>
</svg>
