<svg xmlns="http://www.w3.org/2000/svg" width="1024" height="800" fill="none"><path fill="#0F172A" d="M208.116 365.03c-1.144.552-2.027 1.448-2.36 2.675-1.544 5.677 2.336 12.367 17.426 25.431C301 460.499 399.086 472.587 548.52 461.269c124.443-12.416 295.647-41.809 421.98-3.272 4.136 1.261 18 6.505 18.5 4.499.5-2.005-4.236-4.727-18.5-9.739-97.387-34.213-219.346-27.29-316.053-20.492-81.745 5.747-280.498 19.542-351.621-41.076-3.438-2.93-5.809-5.202-6.965-7.141-1.06-1.778-1.099-3.277 0-4.748 2.041-2.733 8.004-5.371 18.621-9.529C427 332.996 519 338.996 654.447 384.048c6.539 3.164 25.435 9.102 43.395 14.443 6.597 1.962 10.033-5.955 3.984-9.238-65.745-35.681-136.452-56.179-212.516-61.717-95.074-6.649-247.026 20.995-281.194 37.494ZM44.68 420.363c-8.311 5.475-2.319 14.564 6.915 10.85 30.275-12.176 60.858-19.949 100.327-18.492 63.832 2.358 108.133 61.792 173.393 59.142 1.486-.06 2.032-.259 2.085-.503.085-.731-1.48-1.134-1.952-1.239a4.889 4.889 0 0 0-.269-.049c-68.764-10.721-112.124-73.119-153.011-81.658-41.259-8.617-89.55 6.957-127.487 31.949Z"/></svg>
