<svg width="1024" height="800" viewBox="0 0 1024 800" fill="none" xmlns="http://www.w3.org/2000/svg">
<path d="M206.447 365.878C203.16 366.926 206.448 378.649 223.183 393.137C301 460.5 399.086 472.588 548.52 461.27C687.826 447.371 885.729 410.185 1013.69 473.324C1013.76 473.36 1013.84 473.387 1013.92 473.404C1018.79 474.471 1015.56 472.686 1011.55 470.569C909.381 416.514 765.319 424.472 654.448 432.266C572.702 438.012 373.949 451.808 302.827 391.19C299.389 388.259 297.018 385.988 295.861 384.049C294.801 382.27 294.763 380.772 295.861 379.3C297.902 376.568 303.865 373.93 314.482 369.772C426.879 325.142 548.091 330.563 654.448 384.049C665.567 389.429 712.429 402.834 729.639 407.679C730.743 407.99 731.389 406.529 730.416 405.922C656.693 359.902 576.523 333.887 489.311 327.536C392.588 320.772 298.402 336.862 206.447 365.878Z" fill="white"/>
<path d="M11.6935 447.081C10.9131 447.865 11.8005 449.088 12.7988 448.612C57.6479 427.238 95.8025 410.649 151.922 412.721C215.754 415.079 260.055 474.513 325.315 471.863C326.801 471.803 327.347 471.604 327.4 471.36C327.495 470.54 325.511 470.132 325.329 470.096C325.319 470.094 325.31 470.093 325.3 470.091C256.466 459.424 213.079 396.958 172.168 388.414C117.558 377.009 50.6317 407.982 11.6935 447.081Z" fill="white"/>
</svg>
